<svg xmlns="http://www.w3.org/2000/svg" version="1.1" xmlns:xlink="http://www.w3.org/1999/xlink" xmlns:svgjs="http://svgjs.com/svgjs" width="192" height="192"><svg xmlns="http://www.w3.org/2000/svg" version="1.1" viewBox="0.00 0.00 192.00 192.00">
<g stroke-width="2.00" fill="none" stroke-linecap="butt">
<path stroke="#a8c798" vector-effect="non-scaling-stroke" d="
  M 103.89 192.00
  L 181.41 146.99
  A 1.73 1.71 -15.3 0 0 182.26 145.51
  L 182.27 52.01
  A 0.50 0.50 0.0 0 0 181.52 51.58
  L 155.13 67.04
  A 1.22 1.21 75.0 0 0 154.53 68.09
  L 154.57 89.55
  A 0.69 0.69 0.0 0 0 155.60 90.14
  L 162.44 86.20
  A 0.38 0.38 0.0 0 1 162.96 86.71
  L 141.18 125.76
  A 0.50 0.50 0.0 0 1 140.47 125.94
  L 118.98 112.27
  Q 118.33 111.86 119.00 111.47
  L 126.83 106.99
  A 0.98 0.97 -14.7 0 0 127.33 106.14
  L 127.30 83.78
  Q 127.30 83.22 126.81 83.50
  L 100.73 98.71
  A 1.51 1.51 0.0 0 0 99.99 100.01
  L 99.99 130.29
  A 0.41 0.40 74.8 0 0 100.60 130.64
  L 118.57 120.08
  A 2.49 2.47 45.9 0 1 121.15 120.13
  L 140.01 132.20
  A 1.10 1.09 30.6 0 0 141.56 131.81
  Q 151.56 113.57 161.88 95.36
  Q 162.30 94.62 162.67 94.18
  A 0.48 0.48 0.0 0 1 163.52 94.49
  L 163.56 124.99
  A 0.97 0.96 -15.0 0 1 163.07 125.83
  L 100.66 162.17
  A 1.31 1.30 -15.4 0 0 100.02 163.29
  L 100.05 192.00"></path>
<path stroke="#d7eba5" vector-effect="non-scaling-stroke" d="
  M 96.41 192.00
  L 96.50 164.09
  A 2.43 2.42 15.4 0 0 95.30 161.98
  L 76.96 151.28
  A 0.58 0.58 0.0 0 0 76.08 151.79
  L 76.21 159.70
  A 0.44 0.44 0.0 0 1 75.39 159.93
  L 52.91 122.05
  A 0.91 0.90 61.0 0 1 53.27 120.79
  L 75.35 109.29
  A 0.60 0.60 0.0 0 1 76.23 109.84
  L 76.03 118.29
  A 1.48 1.46 16.0 0 0 76.76 119.59
  L 95.49 130.54
  Q 96.47 131.11 96.47 129.98
  L 96.51 100.58
  A 2.38 2.37 15.2 0 0 95.33 98.53
  L 69.47 83.51
  A 0.34 0.34 0.0 0 0 68.96 83.81
  L 68.99 105.45
  A 1.55 1.53 -14.3 0 1 68.16 106.83
  L 47.45 117.61
  A 0.70 0.69 61.5 0 0 47.17 118.58
  Q 58.02 136.86 68.94 155.25
  Q 69.26 155.78 69.23 155.91
  A 0.85 0.81 -69.6 0 1 68.02 156.50
  L 42.72 141.78
  A 2.10 2.08 -75.1 0 1 41.68 139.97
  L 41.70 68.76
  A 2.53 2.52 15.1 0 0 40.44 66.58
  L 15.04 51.74
  Q 13.77 51.00 13.77 52.47
  L 13.77 146.01
  A 0.63 0.62 -75.0 0 0 14.08 146.55
  L 92.35 192.00"></path>
<path stroke="#e4f0bd" vector-effect="non-scaling-stroke" d="
  M 99.46 73.60
  L 91.81 69.18
  A 1.54 1.54 0.0 0 0 90.25 69.18
  L 71.54 80.08
  A 0.46 0.46 0.0 0 0 71.54 80.88
  L 96.75 95.67
  A 3.15 3.15 0.0 0 0 99.93 95.67
  L 124.49 81.25
  A 0.82 0.82 0.0 0 0 124.49 79.83
  L 106.75 69.51
  A 2.51 2.48 16.8 0 1 105.51 67.23
  L 106.60 44.99
  Q 106.65 43.94 105.59 43.95
  Q 84.51 44.18 63.12 44.32
  Q 61.86 44.33 62.61 43.04
  A 0.30 0.30 0.0 0 1 62.72 42.93
  L 87.48 28.55
  A 3.12 3.10 -44.8 0 1 90.61 28.55
  L 151.44 64.01
  A 2.69 2.67 44.8 0 0 154.13 64.01
  L 179.04 49.52
  A 0.78 0.78 0.0 0 0 179.04 48.17
  L 98.86 1.42
  A 1.94 1.94 0.0 0 0 96.92 1.42
  L 16.72 48.17
  A 0.46 0.46 0.0 0 0 16.72 48.97
  L 42.06 63.74
  Q 43.56 64.62 45.07 63.74
  L 62.62 53.60
  A 0.86 0.86 0.0 0 0 62.62 52.11
  L 56.09 48.40
  A 0.38 0.38 0.0 0 1 56.27 47.69
  L 100.34 47.15
  A 0.55 0.54 0.5 0 1 100.90 47.71
  L 100.09 73.25
  A 0.42 0.42 0.0 0 1 99.46 73.60"></path>
</g>
<path fill='none' d="
  M 0.00 0.00
  L 192.00 0.00
  L 192.00 192.00
  L 103.89 192.00
  L 181.41 146.99
  A 1.73 1.71 -15.3 0 0 182.26 145.51
  L 182.27 52.01
  A 0.50 0.50 0.0 0 0 181.52 51.58
  L 155.13 67.04
  A 1.22 1.21 75.0 0 0 154.53 68.09
  L 154.57 89.55
  A 0.69 0.69 0.0 0 0 155.60 90.14
  L 162.44 86.20
  A 0.38 0.38 0.0 0 1 162.96 86.71
  L 141.18 125.76
  A 0.50 0.50 0.0 0 1 140.47 125.94
  L 118.98 112.27
  Q 118.33 111.86 119.00 111.47
  L 126.83 106.99
  A 0.98 0.97 -14.7 0 0 127.33 106.14
  L 127.30 83.78
  Q 127.30 83.22 126.81 83.50
  L 100.73 98.71
  A 1.51 1.51 0.0 0 0 99.99 100.01
  L 99.99 130.29
  A 0.41 0.40 74.8 0 0 100.60 130.64
  L 118.57 120.08
  A 2.49 2.47 45.9 0 1 121.15 120.13
  L 140.01 132.20
  A 1.10 1.09 30.6 0 0 141.56 131.81
  Q 151.56 113.57 161.88 95.36
  Q 162.30 94.62 162.67 94.18
  A 0.48 0.48 0.0 0 1 163.52 94.49
  L 163.56 124.99
  A 0.97 0.96 -15.0 0 1 163.07 125.83
  L 100.66 162.17
  A 1.31 1.30 -15.4 0 0 100.02 163.29
  L 100.05 192.00
  L 96.41 192.00
  L 96.50 164.09
  A 2.43 2.42 15.4 0 0 95.30 161.98
  L 76.96 151.28
  A 0.58 0.58 0.0 0 0 76.08 151.79
  L 76.21 159.70
  A 0.44 0.44 0.0 0 1 75.39 159.93
  L 52.91 122.05
  A 0.91 0.90 61.0 0 1 53.27 120.79
  L 75.35 109.29
  A 0.60 0.60 0.0 0 1 76.23 109.84
  L 76.03 118.29
  A 1.48 1.46 16.0 0 0 76.76 119.59
  L 95.49 130.54
  Q 96.47 131.11 96.47 129.98
  L 96.51 100.58
  A 2.38 2.37 15.2 0 0 95.33 98.53
  L 69.47 83.51
  A 0.34 0.34 0.0 0 0 68.96 83.81
  L 68.99 105.45
  A 1.55 1.53 -14.3 0 1 68.16 106.83
  L 47.45 117.61
  A 0.70 0.69 61.5 0 0 47.17 118.58
  Q 58.02 136.86 68.94 155.25
  Q 69.26 155.78 69.23 155.91
  A 0.85 0.81 -69.6 0 1 68.02 156.50
  L 42.72 141.78
  A 2.10 2.08 -75.1 0 1 41.68 139.97
  L 41.70 68.76
  A 2.53 2.52 15.1 0 0 40.44 66.58
  L 15.04 51.74
  Q 13.77 51.00 13.77 52.47
  L 13.77 146.01
  A 0.63 0.62 -75.0 0 0 14.08 146.55
  L 92.35 192.00
  L 0.00 192.00
  L 0.00 0.00
  Z
  M 99.46 73.60
  L 91.81 69.18
  A 1.54 1.54 0.0 0 0 90.25 69.18
  L 71.54 80.08
  A 0.46 0.46 0.0 0 0 71.54 80.88
  L 96.75 95.67
  A 3.15 3.15 0.0 0 0 99.93 95.67
  L 124.49 81.25
  A 0.82 0.82 0.0 0 0 124.49 79.83
  L 106.75 69.51
  A 2.51 2.48 16.8 0 1 105.51 67.23
  L 106.60 44.99
  Q 106.65 43.94 105.59 43.95
  Q 84.51 44.18 63.12 44.32
  Q 61.86 44.33 62.61 43.04
  A 0.30 0.30 0.0 0 1 62.72 42.93
  L 87.48 28.55
  A 3.12 3.10 -44.8 0 1 90.61 28.55
  L 151.44 64.01
  A 2.69 2.67 44.8 0 0 154.13 64.01
  L 179.04 49.52
  A 0.78 0.78 0.0 0 0 179.04 48.17
  L 98.86 1.42
  A 1.94 1.94 0.0 0 0 96.92 1.42
  L 16.72 48.17
  A 0.46 0.46 0.0 0 0 16.72 48.97
  L 42.06 63.74
  Q 43.56 64.62 45.07 63.74
  L 62.62 53.60
  A 0.86 0.86 0.0 0 0 62.62 52.11
  L 56.09 48.40
  A 0.38 0.38 0.0 0 1 56.27 47.69
  L 100.34 47.15
  A 0.55 0.54 0.5 0 1 100.90 47.71
  L 100.09 73.25
  A 0.42 0.42 0.0 0 1 99.46 73.60
  Z"></path>
<path fill="#518e31" d="
  M 100.09 73.25
  L 100.90 47.71
  A 0.55 0.54 0.5 0 0 100.34 47.15
  L 56.27 47.69
  A 0.38 0.38 0.0 0 0 56.09 48.40
  L 62.62 52.11
  A 0.86 0.86 0.0 0 1 62.62 53.60
  L 45.07 63.74
  Q 43.56 64.62 42.06 63.74
  L 16.72 48.97
  A 0.46 0.46 0.0 0 1 16.72 48.17
  L 96.92 1.42
  A 1.94 1.94 0.0 0 1 98.86 1.42
  L 179.04 48.17
  A 0.78 0.78 0.0 0 1 179.04 49.52
  L 154.13 64.01
  A 2.69 2.67 44.8 0 1 151.44 64.01
  L 90.61 28.55
  A 3.12 3.10 -44.8 0 0 87.48 28.55
  L 62.72 42.93
  A 0.30 0.30 0.0 0 0 62.61 43.04
  Q 61.86 44.33 63.12 44.32
  Q 84.51 44.18 105.59 43.95
  Q 106.65 43.94 106.60 44.99
  L 105.51 67.23
  A 2.51 2.48 16.8 0 0 106.75 69.51
  L 124.49 79.83
  A 0.82 0.82 0.0 0 1 124.49 81.25
  L 99.93 95.67
  A 3.15 3.15 0.0 0 1 96.75 95.67
  L 71.54 80.88
  A 0.46 0.46 0.0 0 1 71.54 80.08
  L 90.25 69.18
  A 1.54 1.54 0.0 0 1 91.81 69.18
  L 99.46 73.60
  A 0.42 0.42 0.0 0 0 100.09 73.25
  Z"></path>
<path fill="#518e31" d="
  M 96.41 192.00
  L 92.35 192.00
  L 14.08 146.55
  A 0.63 0.62 -75.0 0 1 13.77 146.01
  L 13.77 52.47
  Q 13.77 51.00 15.04 51.74
  L 40.44 66.58
  A 2.53 2.52 15.1 0 1 41.70 68.76
  L 41.68 139.97
  A 2.10 2.08 -75.1 0 0 42.72 141.78
  L 68.02 156.50
  A 0.85 0.81 -69.6 0 0 69.23 155.91
  Q 69.26 155.78 68.94 155.25
  Q 58.02 136.86 47.17 118.58
  A 0.70 0.69 61.5 0 1 47.45 117.61
  L 68.16 106.83
  A 1.55 1.53 -14.3 0 0 68.99 105.45
  L 68.96 83.81
  A 0.34 0.34 0.0 0 1 69.47 83.51
  L 95.33 98.53
  A 2.38 2.37 15.2 0 1 96.51 100.58
  L 96.47 129.98
  Q 96.47 131.11 95.49 130.54
  L 76.76 119.59
  A 1.48 1.46 16.0 0 1 76.03 118.29
  L 76.23 109.84
  A 0.60 0.60 0.0 0 0 75.35 109.29
  L 53.27 120.79
  A 0.91 0.90 61.0 0 0 52.91 122.05
  L 75.39 159.93
  A 0.44 0.44 0.0 0 0 76.21 159.70
  L 76.08 151.79
  A 0.58 0.58 0.0 0 1 76.96 151.28
  L 95.30 161.98
  A 2.43 2.42 15.4 0 1 96.50 164.09
  L 96.41 192.00
  Z"></path>
<path fill="#518e31" d="
  M 103.89 192.00
  L 100.05 192.00
  L 100.02 163.29
  A 1.31 1.30 -15.4 0 1 100.66 162.17
  L 163.07 125.83
  A 0.97 0.96 -15.0 0 0 163.56 124.99
  L 163.52 94.49
  A 0.48 0.48 0.0 0 0 162.67 94.18
  Q 162.30 94.62 161.88 95.36
  Q 151.56 113.57 141.56 131.81
  A 1.10 1.09 30.6 0 1 140.01 132.20
  L 121.15 120.13
  A 2.49 2.47 45.9 0 0 118.57 120.08
  L 100.60 130.64
  A 0.41 0.40 74.8 0 1 99.99 130.29
  L 99.99 100.01
  A 1.51 1.51 0.0 0 1 100.73 98.71
  L 126.81 83.50
  Q 127.30 83.22 127.30 83.78
  L 127.33 106.14
  A 0.98 0.97 -14.7 0 1 126.83 106.99
  L 119.00 111.47
  Q 118.33 111.86 118.98 112.27
  L 140.47 125.94
  A 0.50 0.50 0.0 0 0 141.18 125.76
  L 162.96 86.71
  A 0.38 0.38 0.0 0 0 162.44 86.20
  L 155.60 90.14
  A 0.69 0.69 0.0 0 1 154.57 89.55
  L 154.53 68.09
  A 1.22 1.21 75.0 0 1 155.13 67.04
  L 181.52 51.58
  A 0.50 0.50 0.0 0 1 182.27 52.01
  L 182.26 145.51
  A 1.73 1.71 -15.3 0 1 181.41 146.99
  L 103.89 192.00
  Z"></path>
</svg><style>@media (prefers-color-scheme: light) { :root { filter: none; } }
@media (prefers-color-scheme: dark) { :root { filter: contrast(0.8333333333333334) brightness(1.7); } }
</style></svg>